<svg width="200" height="200" viewBox="0 0 200 200" fill="none" xmlns="http://www.w3.org/2000/svg">
<g id="Civil">
<g clip-path="url(#clip0_114_50)">
<g id="Capa 2">
<g id="Capa 1-2">
<g id="Group">
<path id="Vector" d="M101.05 190.29C105.73 174.63 136.9 123.78 135.98 121.68C135.06 119.58 138.98 121.52 126.98 114.95C114.98 108.38 116.5 96.62 116.39 93.28H85.28C85.18 96.62 86.78 108.37 74.73 114.95C62.68 121.53 67.37 122.18 66.38 124.34C65.39 126.5 95.93 174.65 100.61 190.29V191.94C100.651 191.647 100.722 191.359 100.82 191.08C100.9 191.38 100.99 191.68 101.04 191.94L101.05 190.29Z" fill="#D59A80"/>
<path id="Vector_2" d="M117 97.31C116.58 97.7 116.15 98.1 115.75 98.55C114.401 99.7466 112.941 100.811 111.39 101.73C107.33 104.172 102.536 105.093 97.86 104.33C96.45 104.108 95.0685 103.732 93.74 103.21C92.2487 102.62 90.8213 101.879 89.48 101C87.8774 99.909 86.3779 98.6738 85 97.31C79.17 91.68 79.22 77.46 77.81 78.46C74.6 80.63 72.54 74.19 72.14 70.37C71.74 66.55 73.5 65 75.11 66.55C76.72 68.1 76.73 66.37 77.2 64.27C77.3355 63.595 77.5057 62.9275 77.71 62.27C78.01 61.27 78.34 60.27 78.71 59.27C79.19 58.04 79.71 56.84 80.34 55.66C81.0291 54.3364 81.8111 53.0632 82.68 51.85C83.6107 50.538 84.6583 49.313 85.81 48.19C87.0236 47.0195 88.3655 45.9897 89.81 45.12C91.3733 44.1761 93.0545 43.443 94.81 42.94C96.8648 42.3718 98.9881 42.0891 101.12 42.1C103.185 42.1063 105.238 42.4025 107.22 42.98C108.977 43.4881 110.658 44.228 112.22 45.18C113.667 46.0657 115.009 47.1123 116.22 48.3C117.362 49.4236 118.4 50.6486 119.32 51.96C120.179 53.1703 120.951 54.4402 121.63 55.76C122.239 56.9278 122.78 58.1298 123.25 59.36C123.63 60.36 123.98 61.36 124.25 62.36C124.45 63.01 124.63 63.67 124.77 64.36C125.21 66.45 125.24 68.25 126.85 66.64C128.46 65.03 130.19 66.64 129.79 70.46C129.39 74.28 127.3 80.71 124.12 78.54C122.77 77.5 122.82 91.72 117 97.31Z" fill="#E0A484"/>
<path id="Vector_3" d="M86 51.82C82.09 49.74 81.44 56.99 79.25 60.18C77.06 63.37 78.66 69.3 77.35 68.11C76.04 66.92 74.65 66.87 74.2 66C73.95 65.52 69.32 47.83 75.01 38.55C76.82 35.95 79.28 35.25 79.89 34.65C80.5 34.05 81.75 28.81 93.25 26.12C102.16 24.03 117.74 25.18 125.85 38.2C133.96 51.22 128.01 64.66 127.77 66.09C127.53 67.52 125.36 66.93 124.51 68.32C123.66 69.71 124.04 63.43 122.83 61.64C121.62 59.85 120.96 56.75 118.41 56.28C115.86 55.81 97.31 57.82 86 51.82Z" fill="#373737"/>
<path id="Vector_4" opacity="0.6" d="M101.05 80C101.05 80 101.19 80.32 101.41 80.73L101.76 81.42L101.93 81.79C101.93 81.92 102.05 82.03 102.08 82.16C102.121 82.2669 102.151 82.3774 102.17 82.49C102.18 82.5931 102.18 82.6969 102.17 82.8C102.19 82.899 102.19 83.001 102.17 83.1C102.155 83.2034 102.117 83.3023 102.06 83.39L101.91 83.65L101.76 83.86L101.63 84.06H102.15C102.264 84.0173 102.371 83.9602 102.47 83.89C102.539 83.8561 102.603 83.8123 102.66 83.76C102.721 83.7072 102.775 83.6467 102.82 83.58C102.944 83.438 103.036 83.2709 103.09 83.09C103.11 82.9944 103.11 82.8956 103.09 82.8C103.11 82.701 103.11 82.599 103.09 82.5C103.082 82.3301 103.052 82.162 103 82C102.949 81.821 102.868 81.6519 102.76 81.5C102.678 81.3511 102.577 81.2134 102.46 81.09C102.269 80.8689 102.047 80.6768 101.8 80.52C101.586 80.2995 101.331 80.1229 101.05 80V80Z" fill="#DB9C94"/>
<path id="Vector_5" d="M99.55 279.83C60.45 279.83 54.89 259.59 54.89 259.59L58.06 206.79L46 125.84L76.5 113.92C76.5 113.92 100.66 146.82 125.5 113.92L155.92 125.81L143.92 206.74L145.17 260.24C145.17 260.24 141.43 279.83 102.37 279.83H99.55Z" fill="#364F6B"/>
<path id="Vector_6" d="M100.42 134.48C117.05 134.48 126.75 122.85 130.8 115.99L125.47 113.91C100.61 146.81 76.47 113.91 76.47 113.91L70.8 116.12C75.42 122.41 86.2 134.48 100.42 134.48Z" fill="#F5F5F5"/>
<path id="Vector_7" d="M153.28 143.74H48.63L52.7 171.17H149.2L153.28 143.74Z" fill="#FC5185"/>
<path id="Vector_8" d="M55.39 189.32H146.51L147.95 179.6H53.95L55.39 189.32Z" fill="#F5F5F5"/>
<path id="Vector_9" d="M46 125.82C46 125.82 42.76 127.54 39.3 135.97C35.84 144.4 27.64 206.16 27.64 206.16C27.64 206.16 24.64 208.93 26.82 210.85C28.33 212.18 25.37 212.97 24.18 213.85C22.99 214.73 25.31 216.24 26.18 217.1C27.05 217.96 22.61 218.43 25.64 221.89C28.67 225.35 41.86 254.89 53.09 273.89C53.09 273.89 62.77 276.28 67.63 267.65C67.63 267.65 52.21 217.95 50.27 213.65L54.89 186C54.89 186 60.24 148.3 46 125.82Z" fill="#364F6B"/>
<path id="Vector_10" opacity="0.3" d="M33 168.75C30.15 187.13 27.62 206.18 27.62 206.18C27.62 206.18 24.62 208.94 26.8 210.87C28.31 212.19 25.35 212.99 24.16 213.87C22.97 214.75 25.29 216.25 26.16 217.11C27.03 217.97 22.59 218.45 25.62 221.9C28.65 225.35 41.84 254.9 53.07 273.9C54.095 274.12 55.1419 274.221 56.19 274.2C49.31 264.5 30.94 220.27 30.06 213.52C29.68 211.08 31.61 186 33 168.75Z" fill="black"/>
<path id="Vector_11" d="M155.94 125.81C155.94 125.81 159.06 127.54 162.51 135.97C165.96 144.4 174.18 206.16 174.18 206.16C174.18 206.16 177.18 208.93 175 210.85C173.49 212.18 176.45 212.97 177.63 213.85C178.81 214.73 176.51 216.24 175.63 217.1C174.75 217.96 179.2 218.43 176.18 221.89C173.16 225.35 159.9 254.89 148.73 273.89C148.73 273.89 139.05 276.28 134.2 267.65C134.2 267.65 149.61 217.95 151.55 213.65L146.84 186C146.84 186 141.68 148.29 155.94 125.81Z" fill="#364F6B"/>
<path id="Vector_12" opacity="0.3" d="M168.8 168.75C171.64 187.13 174.18 206.18 174.18 206.18C174.18 206.18 177.18 208.94 175 210.87C173.49 212.19 176.45 212.99 177.63 213.87C178.81 214.75 176.51 216.25 175.63 217.11C174.75 217.97 179.2 218.45 176.18 221.9C173.16 225.35 159.9 254.9 148.73 273.9C147.705 274.12 146.658 274.221 145.61 274.2C152.49 264.5 170.86 220.27 171.74 213.52C172.16 211.08 170.18 186 168.8 168.75Z" fill="black"/>
</g>
</g>
</g>
</g>
</g>
<defs>
<clipPath id="clip0_114_50">
<rect width="200" height="200" rx="100" fill="white"/>
</clipPath>
</defs>
</svg>
