<svg width="200" height="200" viewBox="0 0 200 200" fill="none" xmlns="http://www.w3.org/2000/svg">
<g clip-path="url(#clip0_114_66)">
<path d="M157.73 274.11C157.82 267.54 161.22 243.6 163.65 216.23C163.65 216.23 153.78 188.05 152.15 181.75C151.66 180.68 152.15 151.81 154.64 145.93C158.01 138.24 158.46 130.3 164.76 131.21C169.37 131.87 173.76 139.8 179.07 151.21C183.45 160.59 188 177.34 190.89 185.21L191.75 187.03C194.69 195.76 194.25 199.63 195.25 204.2C195.91 207.08 194.44 225.2 194 232.99C193.54 242.18 190.38 278.1 185.2 282.24L159.94 277C159.306 276.827 158.746 276.45 158.347 275.928C157.948 275.406 157.731 274.767 157.73 274.11Z" fill="#5A5F2B"/>
<path d="M172.07 200.85C169.89 199.46 164.52 201.26 164.77 199.6C165.02 197.94 167.77 196.6 162.52 194.25C157.27 191.9 158.86 197.68 162.14 202.48C165.42 207.28 169.97 212.05 172.74 209.88C175.51 207.71 178.39 204.87 172.07 200.85Z" fill="#7D7C3D"/>
<path d="M160.93 163.64C164.83 157.9 161.88 162.09 163.51 165.39C165.14 168.69 168.06 161.78 171.51 160.32C173.83 159.32 176.51 153.47 178.51 149.8C179.538 151.871 180.46 153.994 181.27 156.16C180.71 157.41 180.12 157.83 179.56 159.08C177.07 164.55 177.96 165.08 172.87 164.61C167.78 164.14 170.38 168.35 168.87 170.53C167.36 172.71 163.81 169.29 160.64 169.7C157.47 170.11 157 169.37 160.93 163.64Z" fill="#7D7C3D"/>
<path d="M154.62 171.16C154.87 169.91 156.97 169.37 156.82 168.29C156.67 167.21 160.08 169.16 160.93 171.44C161.78 173.72 165.07 170.73 162.64 167.54C160.21 164.35 152.5 163.31 154.24 161.07C155.98 158.83 160.1 163.56 162.57 164.23C165.04 164.9 166.16 170.58 169.34 169.44C172.52 168.3 170.43 172.68 166.23 173.44C162.03 174.2 162.05 175.93 158.74 174.28C155.43 172.63 154.17 173.4 154.62 171.16Z" fill="#4B4A33"/>
<path d="M159.21 146C161.7 142.73 163.14 146.42 164.4 144.75C166.172 142.67 168.233 140.855 170.52 139.36C170.89 139.069 171.177 138.686 171.353 138.249C171.528 137.812 171.586 137.336 171.52 136.87C172.171 137.765 172.759 138.704 173.28 139.68C173.33 140.366 173.486 141.041 173.74 141.68C174.13 142.36 174.68 143.25 175.07 143.93C177.07 147.55 177.77 148 179.73 152.53C178.87 152.67 179.16 155.02 178 154.53C174.14 153.19 170.51 155.31 173.35 158.45C176.19 161.59 178.05 166.32 172.8 164.24C167.55 162.16 168.8 155.76 165.22 154.15C160.93 152.36 156.67 149.3 159.21 146Z" fill="#979B6E"/>
<path d="M169.79 186C170.11 181.81 179.09 184.44 182.65 183.2C185.04 182.35 187.81 184.01 190.77 184.53C190.86 185.14 191.9 187.35 192.33 188.69L192.39 188.85C192.817 190.163 193.171 191.498 193.45 192.85C190.27 196.38 190.96 198.1 185.97 198.75C180.55 199.47 179.64 201.32 178.36 198.15C177.64 196.38 176.01 197.01 174.96 195.78C173.91 194.55 174.96 187.45 177.89 189.54C180.82 191.63 182.63 189.1 177.05 187.13C171.47 185.16 169.45 190.14 169.79 186Z" fill="#4B4A33"/>
<path d="M184 180.48C183.69 177.91 178.91 174.9 180.4 174C181.89 173.1 184.58 174.46 183.12 168.86C181.66 163.26 178.12 168.21 176.49 173.78C174.86 179.35 174 185.9 177.49 186.68C180.98 187.46 184.88 188 184 180.48Z" fill="#7D7C3D"/>
<path d="M156.79 196.28C157.57 193.79 161.93 194.94 161.6 190.59C161.23 185.7 157.86 185.69 160.8 180.29C163.74 174.89 166.7 175.95 168.29 179.72C169.88 183.49 173.85 184.72 174.29 180.55C174.73 176.38 177 171.82 178.96 177.08C180.92 182.34 175.3 185.7 176.53 189.46C178.01 193.97 178.53 199.15 174.44 199.46C170.35 199.77 172.12 196.26 170.06 196.41C167.323 196.496 164.587 196.183 161.94 195.48C159.76 194.98 158.35 197.56 157.53 198.48C157.32 197.93 157 196.79 156.79 196.28Z" fill="#979B6E"/>
<path opacity="0.3" d="M157.73 274.11C157.82 267.54 161.22 243.6 163.65 216.23C163.65 216.23 153.78 188.05 152.15 181.75C151.66 180.68 152.15 151.81 154.64 145.93C158.01 138.24 158.46 130.3 164.76 131.21C169.37 131.87 173.76 139.8 179.07 151.21C183.45 160.59 188 177.34 190.89 185.21L191.75 187.03C194.69 195.76 194.25 199.63 195.25 204.2C195.91 207.08 194.44 225.2 194 232.99C193.54 242.18 190.38 278.1 185.2 282.24L159.94 277C159.306 276.827 158.746 276.45 158.347 275.928C157.948 275.406 157.731 274.767 157.73 274.11Z" fill="#5A5F2B"/>
<path d="M47.26 274.11C47.18 267.54 43.77 243.6 41.35 216.23C41.35 216.23 51.22 188.05 52.86 181.75C53.33 180.68 52.86 151.81 50.36 145.93C46.99 138.24 46.54 130.3 40.24 131.21C35.64 131.87 31.24 139.8 25.94 151.21C21.56 160.59 17 177.34 14.12 185.21L13.26 187C10.33 195.73 10.77 199.6 9.77003 204.17C9.11003 207.05 10.57 225.17 11.02 232.96C11.49 242.15 14.63 278.07 19.82 282.21L44.91 277C45.5701 276.854 46.1613 276.488 46.5879 275.964C47.0144 275.439 47.2513 274.786 47.26 274.11Z" fill="#5A5F2B"/>
<path d="M32.9301 200.85C35.1201 199.46 40.4201 201.26 40.2201 199.6C40.0201 197.94 37.2201 196.6 42.4801 194.25C47.7401 191.9 46.1301 197.68 42.8601 202.48C39.5901 207.28 35.0301 212.05 32.2601 209.88C29.4901 207.71 26.5701 204.87 32.9301 200.85Z" fill="#7D7C3D"/>
<path d="M44.11 163.64C40.22 157.9 43.11 162.09 41.53 165.39C39.95 168.69 36.98 161.78 33.53 160.32C31.22 159.32 28.53 153.47 26.53 149.8C25.62 151.88 24.73 153.39 23.77 156.16C24.34 157.41 24.93 157.83 25.49 159.08C27.99 164.55 27.08 165.08 32.18 164.61C37.28 164.14 34.67 168.35 36.18 170.53C37.69 172.71 41.24 169.29 44.42 169.7C47.6 170.11 48 169.37 44.11 163.64Z" fill="#7D7C3D"/>
<path d="M50.3701 171.16C50.1201 169.91 48.0301 169.37 48.1701 168.29C48.3101 167.21 44.9201 169.16 44.0701 171.44C43.2201 173.72 39.9201 170.73 42.4201 167.54C44.9201 164.35 52.5401 163.31 50.8101 161.07C49.0801 158.83 44.9501 163.56 42.4701 164.23C39.9901 164.9 38.8801 170.58 35.7201 169.44C32.5601 168.3 34.6201 172.68 38.8201 173.44C43.0201 174.2 42.9901 175.93 46.3101 174.28C49.6301 172.63 50.8201 173.4 50.3701 171.16Z" fill="#4B4A33"/>
<path d="M45.78 146C43.29 142.73 41.87 146.42 40.59 144.75C38.823 142.665 36.7612 140.85 34.47 139.36C34.0976 139.071 33.8087 138.688 33.633 138.25C33.4573 137.813 33.401 137.336 33.47 136.87C32.8192 137.772 32.2312 138.717 31.71 139.7C31.6656 140.387 31.5103 141.063 31.25 141.7C30.86 142.39 30.3 143.27 29.91 143.96C27.91 147.58 27.21 148.03 25.25 152.55C26.11 152.69 25.82 155.05 26.98 154.55C30.85 153.2 34.47 155.32 31.65 158.47C28.83 161.62 26.94 166.34 32.18 164.25C37.42 162.16 36.18 155.77 39.76 154.16C44.1 152.36 48.32 149.3 45.78 146Z" fill="#979B6E"/>
<path d="M35.2201 186C34.8801 181.81 25.9 184.44 22.36 183.2C19.95 182.35 17.19 184.01 14.22 184.53C14.15 185.14 13.1 187.35 12.67 188.69C12.6451 188.741 12.625 188.795 12.61 188.85C12.1772 190.161 11.8233 191.497 11.55 192.85C14.72 196.38 14.05 198.1 19.04 198.75C24.46 199.47 25.37 201.32 26.65 198.15C27.37 196.38 28.99 197.01 30.05 195.78C31.11 194.55 30.05 187.45 27.12 189.54C24.19 191.63 22.38 189.1 27.97 187.13C33.56 185.16 35.5401 190.14 35.2201 186Z" fill="#4B4A33"/>
<path d="M21 180.48C21.3 177.91 26.09 174.9 24.61 174C23.13 173.1 20.41 174.46 21.89 168.86C23.37 163.26 26.89 168.21 28.51 173.78C30.13 179.35 31.01 185.9 27.51 186.68C24.01 187.46 20.11 188 21 180.48Z" fill="#7D7C3D"/>
<path d="M48.2001 196.28C47.4301 193.79 43.0601 194.94 43.4001 190.59C43.7701 185.7 47.1401 185.69 44.1901 180.29C41.2401 174.89 38.3001 175.95 36.7001 179.72C35.1001 183.49 31.1301 184.72 30.7001 180.55C30.2701 176.38 28.0001 171.82 26.0001 177.08C24.0001 182.34 29.6701 185.7 28.4301 189.46C26.9601 193.97 26.4301 199.15 30.5301 199.46C34.6301 199.77 32.8301 196.26 34.9101 196.41C37.641 196.497 40.3699 196.184 43.0101 195.48C45.2001 194.98 46.6101 197.56 47.4401 198.48C47.6701 197.93 48.0001 196.79 48.2001 196.28Z" fill="#979B6E"/>
<path opacity="0.3" d="M47.26 274.11C47.18 267.54 43.77 243.6 41.35 216.23C41.35 216.23 51.22 188.05 52.86 181.75C53.33 180.68 52.86 151.81 50.36 145.93C46.99 138.24 46.54 130.3 40.24 131.21C35.64 131.87 31.24 139.8 25.94 151.21C21.56 160.59 17 177.34 14.12 185.21L13.26 187C10.33 195.73 10.77 199.6 9.77003 204.17C9.11003 207.05 10.57 225.17 11.02 232.96C11.49 242.15 14.63 278.07 19.82 282.21L44.91 277C45.5701 276.854 46.1613 276.488 46.5879 275.964C47.0144 275.439 47.2513 274.786 47.26 274.11Z" fill="#5A5F2B"/>
<path d="M102.3 197C106.97 181.33 138.16 130.49 137.23 128.39C136.3 126.29 140.23 128.23 128.23 121.65C116.23 115.07 117.75 103.33 117.65 100H86.6C86.49 103.34 88.09 115.09 76.04 121.65C63.99 128.21 68.69 128.88 67.7 131.04C66.71 133.2 97.31 181.33 101.92 197.04V198.69C101.96 198.397 102.031 198.109 102.13 197.83C102.21 198.12 102.3 198.43 102.35 198.69L102.3 197Z" fill="#D59A80"/>
<path d="M118.3 104C117.89 104.4 117.47 104.8 117.05 105.17C115.704 106.376 114.244 107.448 112.69 108.37C111.361 109.153 109.949 109.787 108.48 110.26C107.15 110.697 105.774 110.982 104.38 111.11C102.632 111.3 100.867 111.26 99.13 110.99C97.7182 110.781 96.3333 110.419 95 109.91C93.5113 109.316 92.0899 108.565 90.76 107.67C89.1808 106.602 87.6984 105.397 86.33 104.07C80.5 98.44 80.55 84.22 79.14 85.22C76 87.39 73.88 81 73.48 77.13C73.08 73.26 74.83 71.71 76.48 73.32C78.13 74.93 78.11 73.13 78.56 71.03C78.71 70.36 78.88 69.7 79.07 69.03C79.37 68.03 79.72 67.03 80.07 66.03C80.5465 64.7862 81.0873 63.5679 81.69 62.38C82.3795 61.0822 83.151 59.8296 84 58.63C84.9239 57.288 85.9718 56.0359 87.13 54.89C88.3398 53.7035 89.6819 52.66 91.13 51.78C92.6954 50.8402 94.3761 50.1074 96.13 49.6C98.1628 49.041 100.262 48.7585 102.37 48.76C104.434 48.7678 106.488 49.064 108.47 49.64C110.227 50.1536 111.908 50.8967 113.47 51.85C114.92 52.7307 116.263 53.7778 117.47 54.97C118.651 56.0847 119.723 57.3104 120.67 58.63C121.533 59.8241 122.312 61.0771 123 62.38C123.608 63.5948 124.146 64.8435 124.61 66.12C125 67.12 125.34 68.12 125.61 69.12C125.79 69.77 125.97 70.37 126.12 71.12C126.57 73.22 126.58 75.01 128.19 73.4C129.8 71.79 131.54 73.4 131.13 77.22C130.72 81.04 128.64 87.48 125.46 85.3C124.09 84.19 124.14 98.42 118.3 104Z" fill="#E0A484"/>
<path d="M87.3301 58.52C83.4101 56.44 82.7501 63.69 80.5801 66.88C78.4101 70.07 79.9701 76 78.5801 74.88C77.1901 73.76 75.8901 73.63 75.4401 72.78C75.1801 72.31 70.5501 54.62 76.2401 45.26C78.0501 42.67 80.5201 41.96 81.1201 41.37C81.7201 40.78 83.0001 35.5 94.5001 32.81C103.41 30.73 118.99 31.87 127.08 44.9C135.17 57.93 129.25 71.36 129 72.78C128.75 74.2 126.61 73.63 125.76 75.01C124.91 76.39 125.27 70.12 124.06 68.34C122.85 66.56 122.26 63.4 119.76 62.92C117.26 62.44 98.5501 64.51 87.3301 58.52Z" fill="#373737"/>
<path d="M80.1401 116.4C76.1401 119.49 68.1401 122.02 60.4201 125.14C52.7001 128.26 40.1401 130.36 41.1701 131.82C42.2001 133.28 50.4701 142.88 51.1701 157.19C51.8701 171.5 53.5101 196.43 54.7701 215.58C55.7701 230.14 43.4501 284.49 48.0901 288.14C52.7301 291.79 96.3701 293 107.29 293V146.78C107.29 146.78 92.5101 136.17 86.3601 125C83.2501 119.31 83.0001 114.18 80.1401 116.4Z" fill="#8D8B4D"/>
<path d="M124.2 116.4C128.2 119.49 136.2 122.02 143.92 125.14C151.64 128.26 164.18 130.33 163.22 131.79C162.26 133.25 153.87 142.84 153.13 157.15C152.39 171.46 150.8 196.39 149.54 215.54C148.54 230.1 160.85 284.46 156.23 288.1C151.61 291.74 107.92 292.91 97.01 292.91V146.78C97.01 146.78 111.78 136.17 117.93 125.04C121.1 119.31 121.31 114.18 124.2 116.4Z" fill="#838045"/>
<path d="M60.8401 169C61.3601 170.54 58.7701 171.32 60.8401 173.39C62.9101 175.46 68.6001 172.88 69.1201 175.2C69.6401 177.52 66.0201 181.43 69.1201 182.45C72.2201 183.47 71.7101 182.45 74.5501 182.45C77.3901 182.45 77.9101 176.69 73.5501 175.95C69.1901 175.21 77.1601 173.13 74.0601 170.54C70.9601 167.95 69.1501 170.03 66.5701 169C64.7066 168.404 62.7035 168.404 60.8401 169Z" fill="#979B6E"/>
<path d="M118.35 148C118.87 149.55 116.28 150.32 118.35 152.39C120.42 154.46 126.11 151.88 126.63 154.2C127.15 156.52 123.53 160.44 126.63 161.45C129.73 162.46 129.22 161.45 132.06 161.45C134.9 161.45 135.42 155.7 131.06 154.95C126.7 154.2 134.67 152.13 131.57 149.55C128.47 146.97 126.66 149.04 124.08 148C122.217 147.404 120.213 147.404 118.35 148Z" fill="#979B6E"/>
<path d="M83.58 140.62C83.01 141.78 84.36 143.46 83.58 144.24C82.8 145.02 86.69 145.48 88.76 144.24C90.83 143 91.6 147.34 87.76 148.38C83.92 149.42 77.16 145.53 77.16 148.38C77.16 151.23 83.4 149.93 85.69 150.96C87.98 151.99 92.42 148.12 94.23 150.96C96.04 153.8 97.07 149.08 94.23 145.88C91.39 142.68 92.42 141.39 88.8 140.62C85.18 139.85 84.67 138.55 83.58 140.62Z" fill="#4B4A33"/>
<path d="M122.26 209.16C123.07 207.44 124.65 208.16 125.77 206.99C126.89 205.82 126.2 198.65 123.19 200.64C120.18 202.63 118.48 199.94 124.19 198.28C129.9 196.62 131.68 201.68 131.55 197.48C131.42 193.28 122.34 195.41 118.87 193.96C115.4 192.51 109.04 198.4 106.27 194.26C103.5 190.12 102.14 197.14 106.44 201.75C110.74 206.36 109.27 208.31 114.65 209.33C120.03 210.35 120.75 212.25 122.26 209.16Z" fill="#7D7C3D"/>
<path d="M137.3 188.56C138.22 189.47 140.24 188.7 140.76 189.68C141.28 190.66 142.94 187.13 142.34 184.68C141.74 182.23 146.17 182.92 145.96 186.94C145.75 190.96 139.96 196.16 142.7 197.03C145.44 197.9 146.08 191.59 147.78 189.7C149.48 187.81 147.14 182.43 150.4 181.58C153.66 180.73 149.48 178.3 145.57 180.02C141.66 181.74 140.74 180.37 138.9 183.57C137.06 186.77 135.65 187 137.3 188.56Z" fill="#4B4A33"/>
<path d="M71.0001 129.39C67.8001 130.33 66.2601 125.39 64.5001 123.55C63.5601 123.96 62.1701 124.46 61.2101 124.8C61.5701 127.4 64.2101 132.7 62.7301 136.03C60.6601 140.68 65.7301 139.63 68.4201 138.35C70.6201 137.29 68.4201 138.35 70.5401 141.19C72.6601 144.03 74.6201 137.06 78.5401 134.73C82.4601 132.4 75.4201 128.09 71.0001 129.39Z" fill="#4B4A33"/>
<path d="M157.93 140.06C158.088 139.709 158.279 139.375 158.5 139.06C157.57 138.109 156.404 137.423 155.121 137.072C153.838 136.72 152.485 136.716 151.2 137.06C146.81 138.31 145.25 130.34 142.47 131.36C139.69 132.38 144.96 139.12 142.93 143.84C140.9 148.56 145.93 147.45 148.62 146.17C150.81 145.11 148.62 146.17 150.74 149.01C152.48 151.36 153.23 147.34 155.91 144.45C156.465 142.935 157.14 141.467 157.93 140.06Z" fill="#4B4A33"/>
<path d="M102.3 157.83C104.88 157.95 108.3 162.49 109.02 160.94C109.74 159.39 108.25 156.8 113.93 157.83C119.61 158.86 114.93 162.75 109.54 164.83C104.15 166.91 97.6401 168.19 96.6101 164.83C95.5801 161.47 94.8101 157.5 102.3 157.83Z" fill="#7D7C3D"/>
<path d="M69.41 193.11C69.84 195.61 66.08 199.89 67.76 200.32C69.44 200.75 71.66 198.72 71.82 204.5C71.98 210.28 67.22 206.5 64.07 201.63C60.92 196.76 58.33 190.69 61.4 189C64.47 187.31 68.19 185.68 69.41 193.11Z" fill="#7D7C3D"/>
<path d="M134.21 128.38C136.79 128.49 140.16 133.03 140.93 131.47C141.7 129.91 140.16 127.35 145.85 128.38C151.54 129.41 146.85 133.28 141.45 135.38C136.05 137.48 129.55 138.75 128.52 135.38C127.49 132.01 126.68 128 134.21 128.38Z" fill="#7D7C3D"/>
<path d="M67.69 165.44C69.42 163.09 75.8 162.77 74.84 161.08C73.88 159.39 70.46 159.21 75 154.5C79.54 149.79 80.28 156.62 78.8 163.02C77.32 169.42 74.49 176.32 70.67 175.19C66.85 174.06 62.65 172.31 67.69 165.44Z" fill="#7D7C3D"/>
<path d="M88.5701 130.43C84.9201 129.18 83.3301 125.7 86.6301 124.64C85.7115 123.391 84.924 122.05 84.2801 120.64C82.1601 121.89 80.3401 123.4 78.2801 122.89C73.6701 121.75 68.4501 121.64 68.4501 125.73C68.4501 129.82 71.8201 127.79 71.8201 129.86C71.9499 132.587 72.4719 135.282 73.3701 137.86C74.3701 141.22 67.6801 143.29 71.8201 143.29C75.9601 143.29 73.3701 137.86 78.2801 137.86C83.1901 137.86 83.4501 141.22 88.6201 137.86C93.7901 134.5 92.4401 131.71 88.5701 130.43Z" fill="#979B6E"/>
<path d="M92.08 175.9C87.45 174.76 82.25 174.65 82.25 178.74C82.25 182.83 85.6 180.81 85.6 182.88C85.7381 185.607 86.2634 188.301 87.16 190.88C88.16 194.25 81.47 196.32 85.6 196.32C89.73 196.32 87.16 190.88 92.08 190.88C97 190.88 97.24 194.25 102.42 190.88C107.6 187.51 106.3 184.65 102.42 183.4C98.54 182.15 96.99 178.23 101.17 177.45C105.35 176.67 109.71 174.09 104.28 172.54C98.85 170.99 95.92 176.88 92.08 175.9Z" fill="#979B6E"/>
<path d="M135.73 147C131.11 145.87 125.9 145.75 125.9 149.85C125.9 153.95 129.27 151.92 129.27 153.97C129.393 156.697 129.912 159.392 130.81 161.97C131.81 165.33 125.12 167.39 129.27 167.39C133.42 167.39 130.81 161.97 135.73 161.97C140.65 161.97 140.91 165.33 146.07 161.97C151.23 158.61 149.95 155.73 146.07 154.48C142.19 153.23 140.64 149.3 144.82 148.48C149 147.66 153.37 145.12 147.93 143.57C142.49 142.02 139.57 147.92 135.73 147Z" fill="#979B6E"/>
<path d="M66.8 214.12C67.5 209.26 70.87 209.48 68.28 203.88C65.69 198.28 62.7 199.15 60.85 202.81C59 206.47 54.97 207.45 54.79 203.23C54.7292 201.653 54.3907 200.099 53.79 198.64V200.87C53.86 202.54 53.96 204.2 54.06 205.87C54.17 207.23 54.25 208.61 54.3 209.98C54.35 211.35 54.41 212.37 54.47 213.57C54.4568 214.008 54.4836 214.447 54.55 214.88C54.8 216.73 54.8302 218.603 54.64 220.46V222.13C57.02 221.79 56.08 219.13 57.85 219.37C60.5704 219.637 63.315 219.512 66 219C69.48 218.46 70.57 225.42 71.16 221.31C71.75 217.2 66.12 219 66.8 214.12Z" fill="#979B6E"/>
<path d="M123.5 175.9C118.87 174.76 113.67 174.65 113.67 178.74C113.67 182.83 117.03 180.81 117.03 182.88C117.131 185.621 117.63 188.332 118.51 190.93C119.51 194.3 112.82 196.37 116.95 196.37C121.08 196.37 118.51 190.93 123.5 190.93C128.49 190.93 128.67 194.3 133.84 190.93C139.01 187.56 137.72 184.69 133.84 183.45C129.96 182.21 128.41 178.28 132.6 177.5C136.79 176.72 141.13 174.14 135.7 172.59C130.27 171.04 127.31 176.88 123.5 175.9Z" fill="#979B6E"/>
<path d="M102.43 191.32C101.85 192.48 103.21 194.16 102.43 194.94C101.65 195.72 105.53 196.18 107.6 194.94C109.67 193.7 110.44 198.04 106.6 199.08C102.76 200.12 96 196.23 96 199.08C96 201.93 102.24 200.62 104.53 201.66C106.82 202.7 111.26 198.81 113.06 201.66C114.86 204.51 115.92 199.78 113.06 196.58C110.2 193.38 111.26 192.09 107.64 191.32C104.02 190.55 103.46 189.25 102.43 191.32Z" fill="#4B4A33"/>
<path d="M126 174.13C126.41 176.62 122.67 180.91 124.34 181.35C126.01 181.79 128.23 179.74 128.34 185.52C128.45 191.3 123.75 187.52 120.61 182.66C117.47 177.8 114.91 171.71 118 170C121.09 168.29 124.75 166.7 126 174.13Z" fill="#7D7C3D"/>
<path d="M80.5301 171.72C79.9501 172.88 81.3101 174.56 80.5301 175.34C79.7501 176.12 83.6301 176.58 85.7001 175.34C87.7701 174.1 88.5501 178.44 84.7001 179.48C80.8501 180.52 74.0901 176.63 74.0901 179.48C74.0901 182.33 80.3301 181.03 82.6301 182.06C84.9301 183.09 89.3501 179.22 91.1601 182.06C92.9701 184.9 94.0001 180.18 91.1601 176.98C88.3201 173.78 89.3501 172.49 85.7301 171.72C82.1101 170.95 81.5601 169.66 80.5301 171.72Z" fill="#4B4A33"/>
<path d="M147 174.85C145.64 173.94 147.21 171.74 144.3 171.37C141.39 171 138.48 176.52 136.64 174.99C134.8 173.46 135.31 168.18 132.23 169.26C129.15 170.34 130.18 170.83 127.92 172.58C125.66 174.33 128.77 179.18 132.71 177.08C136.65 174.98 131.56 181.52 135.61 181.67C139.66 181.82 139.81 179.08 142.48 178.32C144.304 177.649 145.88 176.438 147 174.85Z" fill="#979B6E"/>
<path d="M74.59 174.25C75.59 172.64 77.08 173.57 78.33 172.54C79.58 171.51 79.84 164.32 76.58 165.92C73.32 167.52 71.99 164.67 77.83 163.7C83.67 162.73 84.83 168 85.23 163.82C85.63 159.64 76.35 160.62 73.08 158.75C69.81 156.88 62.77 161.93 60.54 157.5C58.31 153.07 56.09 159.86 59.78 164.98C63.47 170.1 61.78 171.84 66.98 173.52C72.18 175.2 72.75 177.15 74.59 174.25Z" fill="#4B4A33"/>
<path d="M73.9101 180.56C74.3301 182.42 72.6701 182.82 72.4601 184.43C72.2501 186.04 77.2101 191.29 78.3801 187.89C79.5501 184.49 82.5301 185.55 79.0401 190.38C75.5501 195.21 71.0401 192.23 73.7001 195.5C76.3601 198.77 82.2601 191.5 85.9001 190.5C89.5401 189.5 91.0001 181 95.6801 182.57C100.36 184.14 97.1901 177.77 90.9701 176.75C84.7501 175.73 84.7301 173.28 79.8401 175.75C74.9501 178.22 73.1801 177.23 73.9101 180.56Z" fill="#7D7C3D"/>
<path d="M130.44 207.09C128.33 208.57 122.95 207.09 123.23 208.73C123.51 210.37 126.37 211.54 121.23 214.2C116.09 216.86 117.42 210.93 120.45 205.98C123.48 201.03 127.81 195.98 130.69 198.08C133.57 200.18 136.6 202.77 130.44 207.09Z" fill="#7D7C3D"/>
<path d="M125.51 161C123.62 159.24 124 153.6 122.41 154.27C120.82 154.94 120.31 157.93 116.65 153.45C112.99 148.97 119.05 149.04 124.53 150.95C130.01 152.86 135.75 156.11 134.37 159.34C132.99 162.57 131 166.16 125.51 161Z" fill="#7D7C3D"/>
<path d="M118.05 188.46C122.41 186.54 126.62 183.46 124.05 180.2C121.48 176.94 120.12 180.63 118.86 178.95C117.09 176.871 115.029 175.059 112.74 173.57C109.87 171.57 113.98 165.78 110.64 168.31C107.3 170.84 112.74 173.57 108.84 176.56C104.94 179.55 102.69 177.06 100.66 182.88C98.6301 188.7 101.37 190.17 105.24 188.82C109.11 187.47 112.72 189.6 109.89 192.74C107.06 195.88 105.19 200.61 110.44 198.53C115.69 196.45 114.45 190.06 118.05 188.46Z" fill="#979B6E"/>
<path d="M135.85 144.71C134.54 139.21 128.03 139.58 126.96 135.77C125.71 131.19 123.22 126.57 119.66 128.61C116.1 130.65 119.51 132.55 117.66 133.61C115.338 135.063 113.237 136.841 111.42 138.89C110.997 139.274 110.477 139.534 109.916 139.643C109.356 139.753 108.776 139.707 108.24 139.51C107.812 140.128 107.305 140.686 106.73 141.17C108.79 142.75 111.73 139.41 113.84 143.17C116.25 147.45 113.46 149.32 118.92 152.17C124.38 155.02 126.23 152.51 125.46 148.43C124.69 144.35 127.29 141.16 130 144.37C132.71 147.58 137.23 150.15 135.85 144.71Z" fill="#979B6E"/>
<path d="M66.2401 180.48C64.9301 174.99 58.4101 175.35 57.3501 171.54C56.2901 167.73 54.3501 163.77 51.5801 163.92C51.5901 164.013 51.5901 164.107 51.5801 164.2C51.8201 168.2 52.2001 173.43 52.4101 177.78C52.6201 182.13 52.9901 185.27 53.1401 189.53C55.0001 189.18 56.4101 186.78 55.9101 184.23C55.1401 180.23 57.7601 176.97 60.4701 180.23C63.1801 183.49 67.5501 186 66.2401 180.48Z" fill="#979B6E"/>
<path d="M93.2001 207.65C97.5401 205.71 101.77 202.65 99.2001 199.39C96.6301 196.13 95.2801 199.8 94.0101 198.14C92.2347 196.057 90.1704 194.239 87.8801 192.74C85.0101 190.74 89.1301 184.97 85.8001 187.49C82.4701 190.01 87.8801 192.74 83.9901 195.75C80.1001 198.76 77.8401 196.24 75.8101 202.06C73.7801 207.88 76.5301 209.34 80.3901 208C84.2501 206.66 87.8701 208.78 85.0401 211.91C82.2101 215.04 80.3401 219.8 85.5901 217.7C90.8401 215.6 89.5801 209.24 93.2001 207.65Z" fill="#979B6E"/>
<path d="M55.0001 160.44C54.4554 160.099 53.8309 159.907 53.1887 159.882C52.5466 159.858 51.9093 160.002 51.3401 160.3C51.3401 160.73 51.5801 163.44 51.5301 164.23C51.6501 166.23 51.7501 168.23 51.8901 170.15C52.8914 170.171 53.8807 169.929 54.7601 169.45C60.9401 165.11 57.9001 162.48 55.0001 160.44Z" fill="#7D7C3D"/>
<path d="M92.3201 210.59C90.4201 208.83 90.8101 203.19 89.2101 203.87C87.6101 204.55 87.1101 207.52 83.4601 203.04C79.8101 198.56 85.8501 198.64 91.3301 200.55C96.8101 202.46 102.56 205.7 101.17 208.93C99.7801 212.16 97.8401 215.73 92.3201 210.59Z" fill="#7D7C3D"/>
<path d="M129.74 184.74C129.49 183.5 127.38 182.97 127.52 181.87C127.66 180.77 124.28 182.75 123.43 185.04C122.58 187.33 119.27 184.32 121.72 181.14C124.17 177.96 131.85 176.91 130.11 174.65C128.37 172.39 124.25 177.22 121.78 177.82C119.31 178.42 118.19 184.18 115.02 183.03C111.85 181.88 113.92 186.26 118.13 187.03C122.34 187.8 122.31 189.53 125.61 187.88C128.91 186.23 130.21 187 129.74 184.74Z" fill="#4B4A33"/>
<path d="M63.14 157.68C65.14 158.93 62.92 162.28 67.22 162.68C71.52 163.08 75.64 154.88 78.44 157.07C81.24 159.26 80.65 167.07 85.18 165.38C89.71 163.69 88.18 162.97 91.42 160.38C94.66 157.79 89.93 150.66 84.19 153.89C78.45 157.12 85.73 147.29 79.77 147.22C73.81 147.15 73.65 151.22 69.77 152.41C65.89 153.6 63.14 157.68 63.14 157.68Z" fill="#979B6E"/>
<path d="M53.87 127.37C53.24 127.54 52.53 127.79 51.87 127.93C51.0632 129.037 50.5287 130.318 50.31 131.67C49.93 133.76 46.93 131.92 47.31 129.18C46.25 129.33 41.31 131.67 45.39 134.64C48.86 137.14 49.94 136.3 52.88 134.13C55.82 131.96 57.18 132.45 56.34 130.29C56.14 129.22 54.34 128.13 53.87 127.37Z" fill="#4B4A33"/>
<path d="M59.63 135.75C57.63 131.75 52.69 138.34 53.63 142.81C54.14 145.18 51.52 146.81 49.63 147.97L49.84 148.73C50.19 149.98 50.16 150.4 50.55 151.83C53.18 151.3 57.1 150.17 59.71 151.58C64.2 154 63.54 148.83 62.47 146.08C61.57 143.81 62.47 146.08 65.47 144.19C68.47 142.3 61.65 139.8 59.63 135.75Z" fill="#4B4A33"/>
<path d="M57.8601 126.12C57.5201 127.47 55.7301 130.48 55.3601 132.45C54.9801 134.81 48.3601 138.87 46.8101 140.83C47.3101 141.75 47.3901 142.08 47.8101 143.03C48.0101 143.47 48.2001 143.92 48.3601 144.37C50.4501 143.24 53.5801 140.29 55.8401 138.5C59.3601 135.75 59.9301 136.26 58.6501 132.67C57.3701 129.08 60.8901 130.18 62.2201 128.67C62.9901 127.83 61.6701 126.07 60.8801 124.92C59.8801 125.36 58.9201 125.76 57.8601 126.12Z" fill="#7D7C3D"/>
<path d="M119.26 162.71C120.33 165.46 120.98 170.62 116.5 168.2C112.02 165.78 104.92 170.58 104.03 167.71C103.14 164.84 111.33 163.97 110.37 159.44C109.41 154.91 114.32 148.33 116.37 152.37C118.42 156.41 125.21 158.92 122.21 160.82C119.21 162.72 118.36 160.44 119.26 162.71Z" fill="#4B4A33"/>
<path d="M93.26 143.46C93.26 143.46 105.96 145.71 107.41 146.76C107.3 146.49 91.41 129.9 87.77 124.9C85.3169 121.32 84.3258 116.937 85 112.65L86 109.41C83.35 110.41 80.64 110.65 79.22 116.11C77.8 121.57 75.12 147.65 78.41 147.16C82 146.62 85.85 141.5 93.26 143.46Z" fill="#5A5F2B"/>
<path d="M124.53 34C117.98 29.73 102.43 29.73 102.43 29.73C102.43 29.73 86.8901 29.73 80.3401 34C73.7901 38.27 74.1001 53.5 73.9401 58.53H131C130.76 53.52 131.08 38.29 124.53 34Z" fill="#5A5F2B"/>
<path d="M125 34.36C122.19 32.1 114.88 30.54 110.3 30.2C110.207 30.21 110.113 30.21 110.02 30.2C110.183 32.4904 111.129 34.655 112.7 36.33C116.89 40.82 115.46 42.7 120.7 43.7C125.94 44.7 126.7 46.53 128.19 43.53C128.51 42.85 129.06 42.79 129.54 42.6C129.342 41.7083 129.078 40.8325 128.75 39.98C128.045 37.7955 126.747 35.8498 125 34.36Z" fill="#4B4A33"/>
<path d="M119.29 44C117.88 42.75 118.97 41.5 118.16 40.13C117.35 38.76 110.47 37.63 111.54 40.9C112.61 44.17 109.66 45.14 109.54 39.37C109.42 33.6 114.67 33.27 110.7 32.27C106.73 31.27 106.37 40.38 104.11 43.27C101.85 46.16 105.72 53.64 101.11 55.16C96.5 56.68 102.74 59.79 108.2 56.94C113.66 54.09 115.08 55.94 117.43 51.22C119.78 46.5 121.81 46.16 119.29 44Z" fill="#4B4A33"/>
<path d="M102.94 38.22C101.31 37.8 104.94 33.68 104.54 31.22C104.47 30.77 104.45 30.22 104.37 29.81C101.349 29.6798 98.3232 29.7902 95.3201 30.14C95.5101 32.73 97.3701 36.38 99.3201 39.51C102.38 44.27 107.01 47.92 106.81 42.3C106.61 36.68 104.57 38.67 102.94 38.22Z" fill="#7D7C3D"/>
<path d="M118.3 58.46C122.04 58.32 122.41 58.46 123.45 54.3C124.7 49.48 127.71 53.24 130.21 52.61C130.399 52.5611 130.578 52.4799 130.74 52.37C130.66 51.12 130.58 50.11 130.48 48.88C130.3 46.953 130 45.0392 129.58 43.15C129.58 43.08 129.45 42.5 129.43 42.44C128.63 42.59 127.69 42.8 126.56 43.09C120.01 44.72 124.81 43.44 127.3 46.03C129.79 48.62 122.47 49.03 120 51.62C117.53 54.21 105.6 53.9 104.6 55.49C103.97 56.49 102.03 56.34 101.22 56.61C102.289 57.1071 103.296 57.728 104.22 58.46H118.3Z" fill="#7D7C3D"/>
<path d="M94.5601 30.2C90.7347 30.509 86.9626 31.2916 83.3301 32.53C83.3301 36.28 76.3301 37.29 77.1001 39.92C77.8701 42.55 84.8201 38.04 89.1801 40.38C93.5401 42.72 92.9301 37.71 91.8501 35.04C90.9901 32.82 91.8501 35.04 94.7701 33.2C96.1201 32.44 95.7601 31.31 94.5601 30.2Z" fill="#4B4A33"/>
<path d="M74.4001 58.38H80.1401C82.5201 56.87 85.1401 54.55 87.0301 54.03C90.5701 53.03 92.03 44.77 96.56 46.32C101.09 47.87 98.0001 41.63 92.0001 40.64C86.0001 39.65 85.92 37.28 81.1701 39.64C76.4201 42 75.5401 41.13 76.2501 44.35C76.4801 45.35 75.25 45.44 74.77 46.02C74.5499 47.311 74.3997 48.6129 74.3201 49.92C75.5701 51.92 78.8501 54.03 79.7501 51.44C80.8801 48.13 83.7501 49.17 80.3901 53.84C77.1601 58.28 72.6901 56 74.4001 58.38Z" fill="#7D7C3D"/>
<path d="M102.16 52.5C101.92 51.25 99.88 50.76 100.01 49.7C100.14 48.64 96.86 50.55 96.01 52.78C95.16 55.01 92.01 52.08 94.34 48.98C96.67 45.88 104.21 44.86 102.51 42.74C100.81 40.62 96.81 45.23 94.4 45.82C91.99 46.41 90.91 52.06 87.83 50.89C84.75 49.72 86.76 54.03 90.83 54.8C94.9 55.57 94.9 57.19 98.14 55.63C101.38 54.07 102.59 54.7 102.16 52.5Z" fill="#4B4A33"/>
<path opacity="0.3" d="M124.41 34C117.86 29.73 102.3 29.73 102.3 29.73C102.3 29.73 86.7601 29.73 80.2101 34C73.6601 38.27 74.0001 53.52 73.8101 58.55H130.81C130.66 53.52 131 38.29 124.41 34Z" fill="#5A5F2B"/>
<path d="M131.37 58.55C128.63 56.71 119.65 47.73 102.43 47.73C85.21 47.73 76.24 56.73 73.49 58.55C73.49 58.55 72.57 77.74 82.93 68.75C93.29 59.76 102.43 60.53 102.43 60.53C102.43 60.53 111.58 59.76 121.93 68.75C132.28 77.74 131.37 58.55 131.37 58.55Z" fill="#555538"/>
<path d="M113.14 132.91C112.435 133.918 111.594 134.823 110.64 135.6C108.92 138.49 107.31 142.14 104.14 142C103.922 142.119 103.678 142.181 103.43 142.18C103.178 142.188 102.928 142.127 102.708 142.003C102.488 141.88 102.305 141.699 102.18 141.48H102.1C101.9 141.73 101.68 141.98 101.47 142.22C101.68 142.85 101.37 144.22 99.9 146.22C96.41 151.01 91.9 148.08 94.56 151.35C97.22 154.62 104.44 148.54 108.08 147.61C111.72 146.68 111.83 136.9 116.54 138.49C120.88 139.87 118.51 134.53 113.14 132.91Z" fill="#4B4A33"/>
<path d="M111 143.46C111 143.46 98.3 145.71 96.85 146.76C96.96 146.49 112.85 129.9 116.49 124.9C118.954 121.324 119.955 116.941 119.29 112.65L118.35 109.41C120.98 110.41 123.7 110.65 125.12 116.11C126.54 121.57 129.22 147.65 125.93 147.16C122.34 146.62 118.51 141.5 111 143.46Z" fill="#5A5F2B"/>
<path d="M97.95 292.81H97.01V146.77L97.95 145.75V292.81Z" fill="#5A5F2B"/>
<path opacity="0.6" d="M102.38 86.73C102.38 86.73 102.52 87.05 102.73 87.46L103.09 88.15L103.27 88.52C103.325 88.6365 103.372 88.7568 103.41 88.88C103.41 88.99 103.48 89.11 103.51 89.22V89.53C103.515 89.6266 103.515 89.7234 103.51 89.82C103.48 89.9207 103.44 90.0179 103.39 90.11C103.39 90.19 103.3 90.29 103.25 90.37L103.1 90.57L102.96 90.78H103.48C103.598 90.7395 103.709 90.6823 103.81 90.61L103.99 90.48C104.055 90.4242 104.112 90.3603 104.16 90.29C104.281 90.1511 104.37 89.9872 104.42 89.81C104.44 89.7144 104.44 89.6156 104.42 89.52C104.44 89.421 104.44 89.319 104.42 89.22C104.409 89.026 104.372 88.8343 104.31 88.65C104.25 88.4743 104.17 88.3064 104.07 88.15C103.981 88.0053 103.881 87.8682 103.77 87.74C103.576 87.5185 103.355 87.3235 103.11 87.16C102.897 86.9707 102.649 86.8247 102.38 86.73Z" fill="#DB9C94"/>
</g>
<defs>
<clipPath id="clip0_114_66">
<rect width="200" height="200" rx="100" fill="white"/>
</clipPath>
</defs>
</svg>
